<?xml version="1.0" encoding="UTF-8"?> <svg xmlns="http://www.w3.org/2000/svg" id="Слой_1" data-name="Слой 1" viewBox="0 0 37.95 4.77"> <defs> <style>.cls-1{fill:#243f5c;}</style> </defs> <title>logo_medicare</title> <path class="cls-1" d="M5.28,3.07c0-.64-.09-1.42-.08-2h0c-.23.54-.43,1.12-.7,1.76l-1,2.25H3L2.15,2.87q-.39-1-.63-1.8h0c0,.58-.06,1.36-.11,2.05l-.14,2H.6L1,.43h.89l.92,2.25a14.38,14.38,0,0,1,.54,1.56h0a14.49,14.49,0,0,1,.56-1.56l1-2.25h.89L6.1,5.07H5.42Z" transform="translate(-0.6 -0.41)"></path> <path class="cls-1" d="M10.43,2.94H8.34V4.61h2.33v.5h-3V.43h2.91v.5H8.34v1.5h2.09Z" transform="translate(-0.6 -0.41)"></path> <path class="cls-1" d="M12.05.53a12.26,12.26,0,0,1,1.48-.1A3.38,3.38,0,0,1,15.71,1a2,2,0,0,1,.76,1.66,2.25,2.25,0,0,1-.77,1.8,3.69,3.69,0,0,1-2.39.67H12.05Zm.7,4.11c.23,0,.47,0,.7,0,1.49,0,2.3-.72,2.3-2,0-1.09-.72-1.79-2.19-1.79a5.52,5.52,0,0,0-.81.06Z" transform="translate(-0.6 -0.41)"></path> <path class="cls-1" d="M18.55.43V5.11h-.7V.43Z" transform="translate(-0.6 -0.41)"></path> <path class="cls-1" d="M24,5a4,4,0,0,1-1.42.22A2.36,2.36,0,0,1,20,3.05a1.7,1.7,0,0,1,0-.22A2.47,2.47,0,0,1,22.73.43,3.27,3.27,0,0,1,24,.63l-.17.49A2.73,2.73,0,0,0,22.75.93a1.84,1.84,0,0,0-2.08,1.6,1.56,1.56,0,0,0,0,.31A1.81,1.81,0,0,0,22.4,4.72a1.69,1.69,0,0,0,.32,0,3.38,3.38,0,0,0,1.14-.2Z" transform="translate(-0.6 -0.41)"></path> <path class="cls-1" d="M26.25,3.65l-.56,1.46H25L26.8.43h.84l1.84,4.64h-.74l-.58-1.46ZM28,3.18l-.53-1.33c-.12-.3-.2-.58-.28-.85h0c-.08.28-.16.56-.27.84l-.52,1.34Z" transform="translate(-0.6 -0.41)"></path> <path class="cls-1" d="M30.75.53a8.51,8.51,0,0,1,1.33-.1,2.33,2.33,0,0,1,1.56.38,1.07,1.07,0,0,1,.42.88,1.24,1.24,0,0,1-1,1.18h0a1.18,1.18,0,0,1,.79.94,7.27,7.27,0,0,0,.42,1.27h-.72A5.53,5.53,0,0,1,33.19,4a1,1,0,0,0-1.08-.9h-.66v2h-.69Zm.69,2.12h.71c.75,0,1.22-.35,1.22-.88S32.87.9,32.13.9a4,4,0,0,0-.69,0Z" transform="translate(-0.6 -0.41)"></path> <path class="cls-1" d="M38.31,2.94H36.22V4.61h2.33v.5h-3V.43h2.91v.5H36.22v1.5h2.09Z" transform="translate(-0.6 -0.41)"></path> </svg> 